<?xml version="1.0" encoding="utf-8"?>
<!-- Generator: Adobe Illustrator 23.0.3, SVG Export Plug-In . SVG Version: 6.00 Build 0)  -->
<svg version="1.1" id="Capa_1" xmlns="http://www.w3.org/2000/svg" xmlns:xlink="http://www.w3.org/1999/xlink" x="0px" y="0px"
	 viewBox="0 0 236 70.5" style="enable-background:new 0 0 236 70.5;" xml:space="preserve">
<style type="text/css">
	.st0{fill:#FFFFFF;}
	.st1{enable-background:new    ;}
	.st2{fill:#49A5E6;}
</style>
<title>Group</title>
<desc>Created with Sketch.</desc>
<g>
	<path id="Path_1_" class="st0" d="M92.5,5.6L81.3,26.7c-0.1,0.3-0.4,0.4-0.5,0.4c-0.3,0-0.5-0.1-0.5-0.4L69.1,5.6
		c-0.3-0.1-0.5-0.3-0.8-0.3H63c-0.1,0-0.3,0.1-0.4,0.3c-0.1,0.1-0.1,0.3,0,0.5l17.6,32.7c0.1,0.1,0.3,0.3,0.5,0.3
		c0.3,0,0.4-0.1,0.5-0.3L98.7,6c0.1-0.1,0.1-0.4,0-0.5c0-0.1-0.3-0.3-0.4-0.3h-5.4C92.8,5.2,92.5,5.3,92.5,5.6"/>
	<path class="st0" d="M98.7,33.5l11.1-21.2c0.3-0.3,0.4-0.4,0.7-0.4s0.5,0.1,0.5,0.4l11.1,21.2c0.1,0.3,0.4,0.4,0.5,0.4h5.4
		c0.1,0,0.3-0.1,0.4-0.3c0.1-0.1,0.1-0.3,0-0.5L111.1,0.3c0-0.1-0.3-0.3-0.5-0.3s-0.4,0.1-0.5,0.3L92.4,33.1c-0.1,0.1-0.1,0.4,0,0.5
		c0.1,0.1,0.3,0.3,0.4,0.3h5.4C98.5,33.8,98.7,33.6,98.7,33.5"/>
	<path id="Shape_1_" class="st0" d="M23.4,20.8c2.4-1.3,3.8-4,3.7-6.8c0-5.3-4.1-8.9-9.8-8.9H0.8c-0.1,0-0.4,0-0.4,0.1
		C0.1,5.6,0.1,5.7,0.1,5.8v32.6c0,0.4,0.3,0.7,0.7,0.7h15.9c7.9,0,12-3.4,12-10.2S23.4,20.8,23.4,20.8 M6.3,10.1h9.8
		c3.6,0,5.4,1.6,5.4,4.4s-1.9,4.4-5.4,4.4H6.3c-0.4,0-0.7-0.3-0.7-0.7v-7.4c0-0.1,0-0.4,0.1-0.4C5.9,10.2,6.1,10.1,6.3,10.1
		 M16.3,34H6.3c-0.1,0-0.4,0-0.4-0.1c-0.1-0.1-0.1-0.3-0.1-0.4v-9c0-0.1,0.1-0.4,0.1-0.4s0.1-0.3,0.4-0.3h9.9c4.8,0,6.9,1.3,6.9,5.2
		S21,34,16.3,34"/>
	<path class="st0" d="M57.2,20.8c2.4-1.3,3.8-4,3.7-6.8c0-5.3-4.1-8.9-9.8-8.9H34.5c-0.4,0-0.7,0.3-0.7,0.7v32.6
		c0,0.4,0.3,0.7,0.7,0.7h15.9c7.9,0,12-3.4,12-10.2S57.2,20.8,57.2,20.8 M40.1,10.1h9.8c3.6,0,5.4,1.6,5.4,4.4s-1.9,4.4-5.4,4.4
		h-9.8c-0.1,0-0.4,0-0.4-0.1c-0.1-0.1-0.1-0.3-0.1-0.4v-7.5c0-0.1,0-0.4,0.1-0.4C39.7,10.2,40,10.1,40.1,10.1 M50,34h-9.9
		c-0.1,0-0.4-0.1-0.4-0.1s-0.1-0.3-0.1-0.4v-9c0-0.4,0.3-0.7,0.7-0.7h9.9c4.8,0,6.9,1.3,6.9,5.2S54.8,34,50,34"/>
	<g class="st1">
		<path class="st2" d="M91.1,58.1c0-4.6,2.6-7.6,6.2-7.6c3.5,0,6.2,3,6.2,7.6s-2.6,7.6-6.2,7.6C93.7,65.7,91.1,62.7,91.1,58.1z
			 M102,58.1c0-3.9-2-6.3-4.8-6.3c-2.8,0-4.8,2.3-4.8,6.3s2,6.3,4.8,6.3C100,64.4,102,62.1,102,58.1z"/>
		<path class="st2" d="M106,69.5V55.1h1.2l0.1,1.5c0.8-0.9,1.9-1.7,3.5-1.7c2.4,0,4.3,1.8,4.3,5.4c0,3.6-1.9,5.4-4.3,5.4
			c-1.4,0-2.5-0.7-3.4-1.6v5.3L106,69.5z M113.7,60.2c0-2.9-1.4-4.2-3.2-4.2c-1.3,0-2.2,0.7-3.2,1.7v5.1c1.1,1.1,2,1.7,3.3,1.7
			C112.3,64.5,113.7,63.2,113.7,60.2z"/>
		<path class="st2" d="M117.1,60.2c0-3.7,2.4-5.4,4.6-5.4c2.4,0,4.2,1.9,4.2,5.4v0.3h-7.4c0,2.5,1.5,4,3.4,4c1.4,0,2.4-0.5,3.3-1.5
			l0.7,0.9c-1.1,1.2-2.3,1.8-4,1.8C119.2,65.6,117.1,63.8,117.1,60.2z M124.6,59.4c-0.1-2-1.1-3.5-2.9-3.5c-1.5,0-2.9,1.1-3.2,3.5
			H124.6z"/>
		<path class="st2" d="M128.4,65.4V55.1h1.2l0.1,1.6c1-1,2.3-1.9,3.9-1.9c2.1,0,3.1,1.1,3.1,3.1v7.5h-1.4v-7.3
			c0-1.5-0.6-2.2-2.1-2.2c-1.3,0-2.4,0.7-3.6,1.8v7.6H128.4z"/>
		<path class="st2" d="M144.9,65.4V50.8h1.4v14.6H144.9z"/>
		<path class="st2" d="M149.9,65.4V55.1h1.2l0.1,1.6c1-1,2.3-1.9,3.9-1.9c2.1,0,3.1,1.1,3.1,3.1v7.5H157v-7.3c0-1.5-0.6-2.2-2.1-2.2
			c-1.3,0-2.4,0.7-3.6,1.8v7.6H149.9z"/>
		<path class="st2" d="M161.4,65.4V55.1h1.2l0.1,1.6c1-1,2.3-1.9,3.9-1.9c2.1,0,3.1,1.1,3.1,3.1v7.5h-1.4v-7.3
			c0-1.5-0.6-2.2-2.1-2.2c-1.3,0-2.4,0.7-3.6,1.8v7.6H161.4z"/>
		<path class="st2" d="M172.2,60.2c0-3.5,2.2-5.4,4.7-5.4c2.5,0,4.7,1.9,4.7,5.4c0,3.5-2.2,5.4-4.7,5.4
			C174.4,65.6,172.2,63.7,172.2,60.2z M180.3,60.2c0-2.3-1.1-4.2-3.3-4.2c-2.1,0-3.4,1.8-3.4,4.2c0,2.3,1.1,4.2,3.4,4.2
			C179,64.5,180.3,62.7,180.3,60.2z"/>
		<path class="st2" d="M186.5,65.5l-3.8-10.3l1.4-0.3l3.1,8.9h0l3.1-8.8h1.4l-3.8,10.4H186.5z"/>
		<path class="st2" d="M192.8,63c0-2.1,1.8-3.5,7-4.3v-0.5c0-1.4-0.8-2.1-2.1-2.1c-1.6,0-2.7,0.7-3.8,1.6l-0.8-0.8
			c1.2-1.1,2.6-1.9,4.7-1.9c2.3,0,3.4,1.2,3.4,3.3v7.3h-1.2l-0.1-1.5c-1.2,1.1-2.5,1.7-4.1,1.7C193.8,65.6,192.8,64.6,192.8,63z
			 M199.8,62.8v-3.2c-4.6,0.8-5.7,1.9-5.7,3.2c0,1.1,0.7,1.7,1.9,1.7C197.5,64.5,198.7,63.9,199.8,62.8z"/>
		<path class="st2" d="M204.9,63v-6.8h-1.8v-1.1h1.8v-3.6l1.4-0.2v3.8h2.7v1.1h-2.7v6.6c0,1.1,0.4,1.7,1.6,1.7c0.4,0,0.7-0.1,1-0.1
			l0.2,1.2c-0.3,0.1-0.9,0.1-1.4,0.1C205.8,65.6,204.9,64.9,204.9,63z"/>
		<path class="st2" d="M211.3,51.9c0-0.5,0.3-0.8,0.8-0.8s0.8,0.3,0.8,0.8c0,0.5-0.3,0.9-0.8,0.9S211.3,52.4,211.3,51.9z
			 M211.5,65.4V55.1h1.4v10.4H211.5z"/>
		<path class="st2" d="M215.5,60.2c0-3.5,2.1-5.4,4.7-5.4c2.5,0,4.7,1.9,4.7,5.4c0,3.5-2.1,5.4-4.7,5.4
			C217.7,65.6,215.5,63.7,215.5,60.2z M223.6,60.2c0-2.3-1.1-4.2-3.3-4.2c-2.1,0-3.4,1.8-3.4,4.2c0,2.3,1.1,4.2,3.4,4.2
			C222.3,64.5,223.6,62.7,223.6,60.2z"/>
		<path class="st2" d="M227.5,65.4V55.1h1.2l0.1,1.6c1-1,2.3-1.9,3.9-1.9c2.1,0,3.1,1.1,3.1,3.1v7.5h-1.4v-7.3
			c0-1.5-0.6-2.2-2.1-2.2c-1.3,0-2.4,0.7-3.6,1.8v7.6H227.5z"/>
	</g>
</g>
</svg>
